<svg id="Layer_1" data-name="Layer 1" xmlns="http://www.w3.org/2000/svg" viewBox="0 0 3005.41 734.01" fill="white"><title>Elite Text</title><path d="M3538.31,1514.67c5.94,66.57-53.58,147.2-146.76,147.11q-318.53-.3-637.05-.07h-21.33v19.12q0,209.31-.05,418.63c-.11,77.93-55.23,139.5-132.24,148.29-4.5.51-9.11.06-15.06.06V1662.17H2291.63c1.66-12.59,2-23.25,4.57-33.32,15.13-59.07,52.63-96,111.64-111.28a65.17,65.17,0,0,0,7.45-2.9Z" transform="translate(-533.31 -1514.67)"/><path d="M1015,1514.67c26.78,5.59,54,9.66,80.28,17,169.71,47.49,297.33,197.1,314.34,372.38,5.57,57.36,2.61,115.54,3.51,173.35.11,6.93,0,13.86,0,22.65h439.13c2,28.34-5.59,52.48-18.78,74.78-27.23,46-68.29,72.52-121.44,73-146.5,1.44-293,.49-439.54.45-1.33,0-2.67-.44-5.94-1v-16c0-90.52.23-181-.07-271.56-.24-68.88-19.84-131.63-63.19-185.68-58.67-73.15-135.47-111.14-229.27-112.14-95.18-1-190.37-.22-285.56-.23-79.69,0-132.72-41.24-152.79-118.72-.3-1.17-1.57-2.08-2.4-3.12v-25.2Z" transform="translate(-533.31 -1514.67)"/><path d="M2146.44,1514.67q0,294.75-.06,589.49c-.06,78.8-69.58,147.25-147,143.27v-17.49q0-282.14,0-564.29c0-74.31,43.7-130.05,116-148.14,2.07-.52,3.93-1.88,5.88-2.84Z" transform="translate(-533.31 -1514.67)"/><path d="M533.31,2100q111.21.24,222.41.45c70.87.07,141.75-.16,212.63.06,75.21.24,133.68,46.86,148.82,118.54,1.89,9,2.18,18.26,3.43,29.38h-17.8q-208.44,0-416.87,0c-76.63,0-132.24-43.91-150.18-118.43-.41-1.7-1.61-3.2-2.44-4.79Z" transform="translate(-533.31 -1514.67)"/><path d="M533.31,1808.73q99.32-.24,198.63-.45c82.07-.08,164.14-.22,246.21,0,75,.23,140.47,65,141.76,139.66,0,1.77-.51,3.56-1,6.84h-15.24q-209.15,0-418.28,0c-76.71,0-131.84-43.83-149.69-118.77-.41-1.73-1.55-3.29-2.36-4.92Z" transform="translate(-533.31 -1514.67)"/><path d="M3537.45,2101c5.55,66.32-48.56,132.85-116.4,144.5a166.36,166.36,0,0,1-27.76,2.77q-214.76.26-429.51.12h-11.06c-.25-39.19,12.76-71.92,38.15-99.77,29.27-32.1,66.45-47.86,109.41-48,143.17-.49,286.34-.18,429.51-.16C3532,2100.48,3534.29,2100.79,3537.45,2101Z" transform="translate(-533.31 -1514.67)"/><path d="M2953.7,1954.28c-4.89-55.81,35.69-116.06,93.48-136.64a177.45,177.45,0,0,1,57.38-9.89c140.45-.81,280.91-.44,421.36-.41,3.66,0,7.32.48,12.1.81,2.46,41.39-13.41,75.06-41.09,103.39-27.21,27.82-60.95,43-100.12,43.13-145.12.35-290.24.14-435.36.12C2959.17,1954.79,2956.89,1954.5,2953.7,1954.28Z" transform="translate(-533.31 -1514.67)"/></svg>